<svg version="1.2" xmlns="http://www.w3.org/2000/svg" viewBox="0 0 800 800" width="800" height="800">
  <circle cx="396" cy="407" r="326" fill="white" />
	<style>
		.s0 { opacity: .3;fill: #dde3e0 } 
		.s1 { opacity: .34;fill: #e24fe4 } 
		.s2 { opacity: .64;fill: #dcd8df } 
		.s3 { opacity: 1;fill: #d1dedc } 
		.s4 { opacity: 1;fill: #4f48a3 } 
		.s5 { opacity: 1;fill: #4db7b1 } 
		.s6 { opacity: 1;fill: #4f80b8 } 
		.s7 { opacity: 1;fill: #4a9db8 } 
		.s8 { opacity: 1;fill: #506db3 } 
		.s9 { opacity: 1;fill: #4d5aaa } 
		.s10 { opacity: 1;fill: #4bdc81 } 
		.s11 { opacity: 1;fill: #4dcf93 } 
		.s12 { opacity: .92;fill: #c717d9 } 
		.s13 { opacity: 1;fill: #7667ad } 
		.s14 { opacity: 1;fill: #919fbe } 
	</style>
	<g id="Background">
		<path id="Path 0" class="s0" d="m724 381h1v1h-1zm-658 41h1v1h-1zm658 8h1v1h-1z"/>
		<path id="Path 1" class="s1" d="m374 734h1v1h-1z"/>
		<path id="Path 2" class="s2" d="m372 78h1v1h-1zm352 304h1v1h-1zm-658 11v-2h1v2zm0 29v-2h1v2zm297 311h1v1h-1zm12 1h1v1h-1z"/>
		<path id="Path 3" fill-rule="evenodd" class="s3" d="m373 79v-1h6zm352 310l-1-6h1zm-659 31v-27h1v27zm658 10l1-6v6zm-360 304v-1l3 1zm64 0v-1h3zm-52 1v-1h4v1z"/>
		<path id="Path 4" class="s4" d="m67 420v-2h8l3 34 8 39 24 62 24 39 20 25 46 43-5 6-21-16-31-32-40-59-25-63-10-60-1-5v-8-1z"/>
		<path id="Path 5" class="s5" d="m232 122l51-25 37-11 26-4 1 8-65 17-47 23zm347 548l25-19 29-28 40-54 7 4-18 29-26 31-36 33-17 11z"/>
		<path id="Path 6" class="s6" d="m100 264l17-33 20-26 9 1-21 29-17 31zm187 452l1-9 12 5-1 8zm54 14l1-8 28 3h5l43 1 5-1 21-2v9l-13 1h-3l-1 1-7 1h-1-4-34l-1-1h-4-1-1-7l-3-1h-1z"/>
		<path id="Path 7" class="s7" d="m137 205l18-23 26-25 51-35 3 8-47 33-42 43zm307 518l36-7 31-10 39-18 29-18 4 7-29 19-36 17-37 12-37 7z"/>
		<path id="Path 8" class="s8" d="m80 314l5-18 15-32 8 2-20 49zm178 390v-9l30 12-1 9zm41 16l1-8 42 10-1 8z"/>
		<path id="Path 9" class="s9" d="m68 377l3-29 9-34 8 1-11 53-2 50h-8v-25-2-9zm127 289l5-6 58 35v9l-33-16z"/>
		<path id="Path 10" class="s10" d="m474 96l2-8 46 14 47 24 41 30 35 35 30 40 23 43 17 48 8 48 1 4v7 1 1l1 6v35l-1 6v1 7l-1 4-1 12h-9l2-18 1-4v-51l-11-62-17-46-32-54-45-50-34-27-50-28z"/>
		<path id="Path 11" class="s11" d="m373 79l6-1h43l54 10-2 8-54-9-73 3-1-8 26-3zm300 490l25-53 15-62h9l-4 25-12 41-26 53z"/>
		<path id="Path 12" class="s2" d="m504 284v-1l5 1zm-177 102l1-8v8z"/>
		<path id="Path 13" class="s12" d="m427 733h1v1h-1zm-47 1h1v1h-1z"/>
		<path id="Path 14" fill-rule="evenodd" class="s4" d="m197 417l-9-7-1-13 6-8 8-2 3-10h7l5 16 16 17 3 1 5-7 4 2-5 7 4 6 21 13 4-2 1 6-4 5v9l6 6h7v7h-4l-1 11 20-5v5l-20 6 4 29h6l3 1 8 4 3 12 15 1-1 6-15-2-4 6-9 3h-4l-11-6-1-16-12-15 1-21-16-2-13-7-15 2-9-6-3-12 5-9-6-12-1-11zm14-16l-3-7-10-1-5 5v8l5 5h8l5-7zm1 15l9 9 4 2 6-10-14-14zm7 27l3-11-8-5-7-10h-4l4 24 2 4 4-1zm12-12l26 10 3-3-25-18zm-7 15l7 8 1 8-3 6 4 3 11 4 17 1 6-2 2-11-7-5-4-11-31-11zm-17 10v7l4 5h10l5-7-4-10-10-1zm60 32v-7l-5 2-2 16 6 11 6 3-4-21zm5 34l1 8 5 4h7l6-6-1-9-11-4zm54 4l8-2-1 6-7 1z"/>
		<path id="Path 15" fill-rule="evenodd" class="s5" d="m317 230l8-8 2-14 10-6 13 3 5 11 7 3 18-13 15-2 15 4 12 13 12-4 4-9 9-4v5l-6 6v8l7 5v6l-7-2-6-10-11 5v16l-10 15 10 12 27-13 21-6v5l-44 18 19 28 41-2 1-7 5-6-10-20 5-2 9 20 6-2v6l-9 8 1 10 9 5 10-4 4 4-7 6h-6l-2 16 19 10 25 19 6-9h5l-5 15 14 14 7 12-4 2-10-14-11-9-21 27 16 11 3 7-1 10 18-8 2-4h6l9 5v5l-13-3-22 11 11 16 18 3h5l1-6 6-5-1-5h5l1 3h7l1-3h6l-2 6 6 7v10l-4 7-8 3-1 17-10 18 2 14-7 9-11 2-10 12-3-4 8-11-6-4-2-7-15-1v-6l15 1 3-7 8-4-1-12-7-19-8-14-11-2-3 5-11 4 2 20h-6l-1-21-11-6-3-11-4 22h-6l-2-20-14 3v-6l13-3-2-10-11 8-5-4 14-12-6-22-2-2-11 26h-5l14-35-19-46-22-24-37-6v-5l22-4-19-17-22 15-3-3 19-17-14-9-10 7-3-4 7-5-4-3 3-4 7 3 17-10-15-16-26-15-6 19-5-1 6-21-5-1-2 6-7 5h-10l-7-6-7 6zm32-14l-4-7-7-1-6 4-2 7 4 7 5 2 7-2 3-6zm27-2l-7 6 1 3 21 12 18 18 7-5 3-7-1-10-9 14-5-2 5-11 8-6-2-7-10-7-17-2zm17 57l14 9 10-5 3-3-12-11zm19 13l22 19h7l-19-26zm39 25l5 8 43 14 2-14-6-2-6-10h-7zm17 32l22 22 8-25-38-15zm28 29l27 29 23-28v-3l-12-10-31-18zm-11 10l4-7v-4l-12-12zm4 12l7 22 8-2v5l15-14-25-28zm13 32l-2 7 2 8h4l5-1 3-8 10-6h9l9 5-1-13-9-8-7-2zm14 15v8l4 6 14 1 6-8v-7l-4-6-12-2zm75 8l-5 8 4 9 10 1 6-8-2-7-9-4zm-21 27l6 25 10 2 8-23v-7l-10-4-3-7-19-3zm-5 37v8l5 5 12-2 2-11-6-6h-7z"/>
		<path id="Path 16" fill-rule="evenodd" class="s6" d="m246 274l17-10v-9l5-7 6-3 12 3 6-2 1 5v13l5 1 3 8-5 42 34-6v5l-34 6v5l10 3 7 6 25-10 4 4-4 15 5-5 3 4-10 12-3 32h-5v-22l-16 24-8-2-4-13h-4v-6l13-8 2-15-10-12-16 1-1-4h-4v-4l-6 1-2-4 6-2-4-23 1-21-11-6-14 8zm22-15l3 9 10 2 7-7-3-10-10-2zm19 15l-7 2v23l3 18 8-1v-20l5-26-6-1zm29 64l1 18-12 16 5 11 19-27 6-21v-4h-3zm112 116l12-2v7l-10 4zm-62 8v-8l9 3h9l38-2v5l-29 2-6 3 12 5 23-9v5l-16 6 1 2 18 6 8-6 4 9-5 6v8l4 5 9 2 5-2 4-10h6l6 2-2 5-5-1v4l6 5-5 2-5-4-6 5-7 1-9-3-5-7-6 3-4-3 7-6 1-7-2-2-22 14-2-4 18-11-1-2-18-8-19 7v-6l10-5zm61 70l5-3 32 13h6l5-8 6 2 2 5-6 4 10 3v5l-17-3-8 14 21 19 9-21h5l-9 22 4 8h-6l-9-5-8 4-1 10 6 5v6l-6-2-6-10h-4v-5l15-14-14-13-3 2-3-4 1-3-7-7-23 5v-6l17-3zm20 18l12-3-21-9zm6 6l5 3 5-7-2-1zm53 18l4-2 4 11 6-6 5 2-9 10 1 23h-5v-15l-1-4-3 1-2-4 4-2zm-1 71l-10-5-3-10h6l1 5 6 4zm7-7l5-6h6l-3 8-6 3z"/>
		<path id="Path 17" class="s13" d="m399 576l4-2 9 10-3 4z"/>
		<path id="Path 18" class="s14" d="m425 523l-1-7h6v4h-4z"/>
		<path id="Path 19" fill-rule="evenodd" class="s7" d="m292 246l16-3 9-13 4 3-7 10 36 8 3-7 5 1-1 8 24 11-3 4-19-9-3 2 1 8v5l12 5 6-3 3 4-5 4 2 11-7 11h7l8-7 3 3-3 4 22 2v5l-40 8-19 21-3-4 11-13-12 3-4-4 4-11-12 1v-5l15-2-5-18-39-16-3-8 7-17-12 3zm11 22l37 16 12-9-1-19-40-8zm43 21l1 8 4 4 11 1 6-7v-7l-4-6-11-1zm2 23l-3 9 17-4 5-4-2-2zm92 140l18-7 11-21h5l-6 15 11-5 5 4-5 6 5-1v6l-17 5-15 12-4 7-1 3 6 2 6 7 1 7h-6l-5-9h-12l-4-9 19-17-2-2-10 4zm-18 3l6-1 2 9-8 3zm44 39l25 6 6-26h3v-8h6l1 38 10 2 8-16v-8h6l2 27 11 1v6l-11-1v27l12 6 14-9 3 4-16 10-1 10-5 7-12 3-3 6-5-2 3-6-6-5-2-7-11-2 6 15-4 2-7-15-2 3h-5l2-7-7-2v-5h6l-6-8-4 1-2-5-6-2 2-7-17-18 5-2 16 16 7-17-24-7zm30 8l6 1-1-21zm6 9l-1-3-8-1-8 19 2 6 9-4 5-5v-8zm3 16l-4 24 14 2 6-9 6-2 1-28-10-1zm-13 12l5 6 1-13zm29 14l1 10 10 4 8-7-2-10-10-3z"/>
		<path id="Path 20" fill-rule="evenodd" class="s8" d="m216 316l8-19 22-23 4 4-8 9-4 14 2 18 6 14 26-11 2 4-24 11 4 9 18 20 3-2-6-9v-12l5-10 6-4h4l1 4-9 9-1 11 7 11 14 3v6h-13l10 7-2 5-16-11-11 8-3-3 8-10-15-14-9-14-8 4-2-4 7-6-9-21v-17l-12 20zm63 81l16 11 8-14-6-4v-4l3-2 4 2 8 2 10 7-1 4-5 2 12 24v-15l-1-4v-20h6v11l4 40 29 17v8h-14l13 18 15-4v6l-9 4 14 14 4 2 11-6 2 4-8 6 9 7 15-12 4 3-13 12 14 9 2-2 1-3h4l2 9-5 3-24-12-26 13-3-5 23-10v-4l-10-6-20 10 3 7-4 2-4-6-4 1v-6l-9-25-11 2v-6l8-2-8-25-5-1-4 16h-5l3-16-11 5-1-5 3-2-2-1v-6l11 2 6-4-4-11-32-21-9 14-5-1 8-17-14-11zm20 15l24 15-16-31zm47 43l12 1-16-10zm5 28l9-1-14-16zm3 8l10 22 19-8-18-18h-5zm36 59v-6l10 3 4 7-5 1zm24 6l10-1v6l-10 1zm-22 13l7-5 5 2-1 8-4 2-7-1zm20 15l17-3 6 4 18-19 3 4-17 19v4l1 3 18-1v5l-19 1-5 8-13 3-11-8-1-16zm3 9v7l5 5 12-2 2-10-6-6h-7zm77-1l14-2 2 4-12 6 7 14 9-2h5v5l6 8v7h-6v-6l-6-6-9 1-4 9h-6v-5l6-8-6-14-9 9h-9v-6l11-3 1-11zm13 47l7-1 2 5-9 2z"/>
		<path id="Path 21" fill-rule="evenodd" class="s9" d="m204 377v-17l-6-6-1-10 6-9 9-3 4-16 5 1-3 16 8 6 2 6 7-4 2 4-9 9 26 23 7 2 3 3 1 4 14 11-2 4-18-13-15 18-4-2 15-19-5-6-25-20-9 6-5 12zm11-20l7-6-1-9-6-4-9 2-3 5 1 8 6 4zm53 73l15-1 5 1 5 15 23 5v6l-24-6-7 11-7 2v-7l7-4 1-11-6-6-11 1zm25 39l22-10 1 5-23 10zm41 55l4-2-10-13h-11l-10-10-1-6 4-10 13-5 1-3h5l-1 5 10 7v6l-5 15 6 8 9 4 10-4v6l-6 3 14 2 4-2 4 3 3 5-2 1 8 12 7-2v6l-9 5v9l11 5v6l-9-1-6-5-2-15 3-6-9-14-15-2-9-5-12 3zm-21-34l3 12h12l4-9-4-7-10-1zm-1 37l14-1v5l-15 2zm87 28l5-1 10 2v6h-9l-1 4-5-2z"/>
		<path id="Path 22" fill-rule="evenodd" class="s11" d="m447 204h9l7 5 2 6 19 4 23 13 14-3 8 5 3 6-1 11 19 16 9 16 6 28 8 3 6 8-1 12 15 16 6 14 12 3 5 6v13l-7 7 2 20-1 5-3 20h-6l4-18-2-25h-7l-4 5 5 9v7l-8 10 3 12h-5l-5-11v-5l9-6-3-12-11-1-5 6 1 8h-6l-1-8 6-9-1-3 4-2 13 2 2-2-4-19 8-12-19-26-13 5-3 11h-5l4-13-8-6-1-11-30-12-4-4 2-4-2-11-11-4v-5h5l10 5 24-1 14 8-6-17-17-20-7-4-4 4-9 1-7-3-4-6h-9l-11 2 6 12-5 2-6-12-6 1v-5l2-2-14-18-12 3v-6l8-1 4-10-3-6-10-2zm16 23l16 21 23-3 2-8-18-11-21-6zm44 16l5 10 8 1 6-6v-8l-6-5h-7zm16 64l27 11 9-6-2-8-7-7-10-4h-16zm31 18l5 11 11-1 4-7-5-10-7-1zm38 52l1 8 5 4h7l6-6-1-9-10-4z"/>
		<path id="Path 23" class="s6" d="m352 380l8-20 13-11 15-5v6l-11 4-11 9-7 17zm35 39l3-3 23 1v6l-25 1z"/>
		<path id="Path 24" class="s7" d="m388 344l25-2 12 3 21 14 8 15v18l-8 15-19 13-14 3v-6l14-4 14-10 7-13-1-18-11-14-10-6-14-4-24 2z"/>
		<path id="Path 25" class="s8" d="m370 414l-13-13-5-21h7l4 19 13 11-1 15 12-6 1 5-18 11-1-15z"/>
		<path id="Path 26" class="s7" d="m381 378h6l3 4-3 6h-6zm19 0h6l3 8-4 3-5-1zm20 0l8 3v5l-4 3-5-1-2-7z"/>
	</g>
</svg>